<?xml version="1.0" encoding="utf-8" standalone="no"?>
<!DOCTYPE svg PUBLIC "-//W3C//DTD SVG 1.1//EN"
  "http://www.w3.org/Graphics/SVG/1.1/DTD/svg11.dtd">
<svg xmlns:xlink="http://www.w3.org/1999/xlink" width="460.8pt" height="345.6pt" viewBox="0 0 460.8 345.6" xmlns="http://www.w3.org/2000/svg" version="1.1">
 <metadata>
  <rdf:RDF xmlns:dc="http://purl.org/dc/elements/1.1/" xmlns:cc="http://creativecommons.org/ns#" xmlns:rdf="http://www.w3.org/1999/02/22-rdf-syntax-ns#">
   <cc:Work>
    <dc:type rdf:resource="http://purl.org/dc/dcmitype/StillImage"/>
    <dc:date>2024-06-26T14:50:42.858321</dc:date>
    <dc:format>image/svg+xml</dc:format>
    <dc:creator>
     <cc:Agent>
      <dc:title>Matplotlib v3.8.3, https://matplotlib.org/</dc:title>
     </cc:Agent>
    </dc:creator>
   </cc:Work>
  </rdf:RDF>
 </metadata>
 <defs>
  <style type="text/css">*{stroke-linejoin: round; stroke-linecap: butt}</style>
 </defs>
 <g id="figure_1">
  <g id="patch_1">
   <path d="M 0 345.6 
L 460.8 345.6 
L 460.8 0 
L 0 0 
z
" style="fill: #ffffff"/>
  </g>
  <g id="axes_1">
   <g id="LineCollection_1">
    <path d="M 417.013242 74.071966 
L 395.501265 136.19415 
" clip-path="url(#p442d6c9502)" style="fill: none; stroke: #000000"/>
    <path d="M 417.013242 74.071966 
L 420.813223 242.538844 
" clip-path="url(#p442d6c9502)" style="fill: none; stroke: #000000"/>
    <path d="M 417.013242 74.071966 
L 407.503058 89.093465 
" clip-path="url(#p442d6c9502)" style="fill: none; stroke: #000000"/>
    <path d="M 417.013242 74.071966 
L 380.994444 42.850704 
" clip-path="url(#p442d6c9502)" style="fill: none; stroke: #000000"/>
    <path d="M 417.013242 74.071966 
L 387.31759 68.990699 
" clip-path="url(#p442d6c9502)" style="fill: none; stroke: #000000"/>
    <path d="M 395.501265 136.19415 
L 420.813223 242.538844 
" clip-path="url(#p442d6c9502)" style="fill: none; stroke: #000000"/>
    <path d="M 395.501265 136.19415 
L 379.413744 178.045662 
" clip-path="url(#p442d6c9502)" style="fill: none; stroke: #000000"/>
    <path d="M 395.501265 136.19415 
L 385.004765 151.716956 
" clip-path="url(#p442d6c9502)" style="fill: none; stroke: #000000"/>
    <path d="M 395.501265 136.19415 
L 353.018696 137.643182 
" clip-path="url(#p442d6c9502)" style="fill: none; stroke: #000000"/>
    <path d="M 395.501265 136.19415 
L 407.503058 89.093465 
" clip-path="url(#p442d6c9502)" style="fill: none; stroke: #000000"/>
    <path d="M 395.501265 136.19415 
L 385.442169 107.951344 
" clip-path="url(#p442d6c9502)" style="fill: none; stroke: #000000"/>
    <path d="M 420.813223 242.538844 
L 355.711824 294.852763 
" clip-path="url(#p442d6c9502)" style="fill: none; stroke: #000000"/>
    <path d="M 420.813223 242.538844 
L 389.735873 290.119708 
" clip-path="url(#p442d6c9502)" style="fill: none; stroke: #000000"/>
    <path d="M 420.813223 242.538844 
L 320.637781 205.79044 
" clip-path="url(#p442d6c9502)" style="fill: none; stroke: #000000"/>
    <path d="M 420.813223 242.538844 
L 379.413744 178.045662 
" clip-path="url(#p442d6c9502)" style="fill: none; stroke: #000000"/>
    <path d="M 355.711824 294.852763 
L 320.637781 205.79044 
" clip-path="url(#p442d6c9502)" style="fill: none; stroke: #000000"/>
    <path d="M 355.711824 294.852763 
L 283.343438 236.146479 
" clip-path="url(#p442d6c9502)" style="fill: none; stroke: #000000"/>
    <path d="M 355.711824 294.852763 
L 293.678611 315.609917 
" clip-path="url(#p442d6c9502)" style="fill: none; stroke: #ffa500; stroke-width: 4"/>
    <path d="M 355.711824 294.852763 
L 389.735873 290.119708 
" clip-path="url(#p442d6c9502)" style="fill: none; stroke: #000000"/>
    <path d="M 355.711824 294.852763 
L 265.177064 303.087296 
" clip-path="url(#p442d6c9502)" style="fill: none; stroke: #000000"/>
    <path d="M 320.637781 205.79044 
L 283.343438 236.146479 
" clip-path="url(#p442d6c9502)" style="fill: none; stroke: #000000"/>
    <path d="M 320.637781 205.79044 
L 379.413744 178.045662 
" clip-path="url(#p442d6c9502)" style="fill: none; stroke: #000000"/>
    <path d="M 320.637781 205.79044 
L 318.665384 192.428304 
" clip-path="url(#p442d6c9502)" style="fill: none; stroke: #000000"/>
    <path d="M 283.343438 236.146479 
L 265.177064 303.087296 
" clip-path="url(#p442d6c9502)" style="fill: none; stroke: #000000"/>
    <path d="M 283.343438 236.146479 
L 318.665384 192.428304 
" clip-path="url(#p442d6c9502)" style="fill: none; stroke: #000000"/>
    <path d="M 283.343438 236.146479 
L 225.083087 217.399172 
" clip-path="url(#p442d6c9502)" style="fill: none; stroke: #000000"/>
    <path d="M 283.343438 236.146479 
L 220.709706 272.424958 
" clip-path="url(#p442d6c9502)" style="fill: none; stroke: #000000"/>
    <path d="M 293.678611 315.609917 
L 389.735873 290.119708 
" clip-path="url(#p442d6c9502)" style="fill: none; stroke: #ffa500; stroke-width: 4"/>
    <path d="M 293.678611 315.609917 
L 265.177064 303.087296 
" clip-path="url(#p442d6c9502)" style="fill: none; stroke: #ffa500; stroke-width: 4"/>
    <path d="M 293.678611 315.609917 
L 195.712678 301.735004 
" clip-path="url(#p442d6c9502)" style="fill: none; stroke: #008000; stroke-width: 4"/>
    <path d="M 379.413744 178.045662 
L 385.004765 151.716956 
" clip-path="url(#p442d6c9502)" style="fill: none; stroke: #000000"/>
    <path d="M 379.413744 178.045662 
L 353.018696 137.643182 
" clip-path="url(#p442d6c9502)" style="fill: none; stroke: #000000"/>
    <path d="M 379.413744 178.045662 
L 319.936338 177.832939 
" clip-path="url(#p442d6c9502)" style="fill: none; stroke: #000000"/>
    <path d="M 379.413744 178.045662 
L 318.665384 192.428304 
" clip-path="url(#p442d6c9502)" style="fill: none; stroke: #000000"/>
    <path d="M 385.004765 151.716956 
L 353.018696 137.643182 
" clip-path="url(#p442d6c9502)" style="fill: none; stroke: #000000"/>
    <path d="M 195.712678 301.735004 
L 265.177064 303.087296 
" clip-path="url(#p442d6c9502)" style="fill: none; stroke: #ffa500; stroke-width: 4"/>
    <path d="M 195.712678 301.735004 
L 213.15187 290.688522 
" clip-path="url(#p442d6c9502)" style="fill: none; stroke: #ffa500; stroke-width: 4"/>
    <path d="M 195.712678 301.735004 
L 68.023815 231.728655 
" clip-path="url(#p442d6c9502)" style="fill: none; stroke: #ffa500; stroke-width: 4"/>
    <path d="M 195.712678 301.735004 
L 39.986777 278.127589 
" clip-path="url(#p442d6c9502)" style="fill: none; stroke: #ffa500; stroke-width: 4"/>
    <path d="M 195.712678 301.735004 
L 154.606284 199.298954 
" clip-path="url(#p442d6c9502)" style="fill: none; stroke: #ffa500; stroke-width: 4"/>
    <path d="M 195.712678 301.735004 
L 220.709706 272.424958 
" clip-path="url(#p442d6c9502)" style="fill: none; stroke: #ffa500; stroke-width: 4"/>
    <path d="M 265.177064 303.087296 
L 213.15187 290.688522 
" clip-path="url(#p442d6c9502)" style="fill: none; stroke: #000000"/>
    <path d="M 265.177064 303.087296 
L 220.709706 272.424958 
" clip-path="url(#p442d6c9502)" style="fill: none; stroke: #000000"/>
    <path d="M 213.15187 290.688522 
L 220.709706 272.424958 
" clip-path="url(#p442d6c9502)" style="fill: none; stroke: #000000"/>
    <path d="M 68.023815 231.728655 
L 39.986777 278.127589 
" clip-path="url(#p442d6c9502)" style="fill: none; stroke: #000000"/>
    <path d="M 68.023815 231.728655 
L 154.606284 199.298954 
" clip-path="url(#p442d6c9502)" style="fill: none; stroke: #000000"/>
    <path d="M 68.023815 231.728655 
L 98.599604 181.968876 
" clip-path="url(#p442d6c9502)" style="fill: none; stroke: #000000"/>
    <path d="M 68.023815 231.728655 
L 43.926388 110.96155 
" clip-path="url(#p442d6c9502)" style="fill: none; stroke: #ffa500; stroke-width: 4"/>
    <path d="M 39.986777 278.127589 
L 43.926388 110.96155 
" clip-path="url(#p442d6c9502)" style="fill: none; stroke: #ffa500; stroke-width: 4"/>
    <path d="M 154.606284 199.298954 
L 98.599604 181.968876 
" clip-path="url(#p442d6c9502)" style="fill: none; stroke: #000000"/>
    <path d="M 154.606284 199.298954 
L 220.709706 272.424958 
" clip-path="url(#p442d6c9502)" style="fill: none; stroke: #000000"/>
    <path d="M 154.606284 199.298954 
L 155.627157 190.436531 
" clip-path="url(#p442d6c9502)" style="fill: none; stroke: #000000"/>
    <path d="M 154.606284 199.298954 
L 214.249525 213.510733 
" clip-path="url(#p442d6c9502)" style="fill: none; stroke: #000000"/>
    <path d="M 98.599604 181.968876 
L 43.926388 110.96155 
" clip-path="url(#p442d6c9502)" style="fill: none; stroke: #ffa500; stroke-width: 4"/>
    <path d="M 98.599604 181.968876 
L 155.627157 190.436531 
" clip-path="url(#p442d6c9502)" style="fill: none; stroke: #000000"/>
    <path d="M 98.599604 181.968876 
L 156.100542 157.418277 
" clip-path="url(#p442d6c9502)" style="fill: none; stroke: #000000"/>
    <path d="M 98.599604 181.968876 
L 100.245721 129.609089 
" clip-path="url(#p442d6c9502)" style="fill: none; stroke: #000000"/>
    <path d="M 98.599604 181.968876 
L 113.014565 143.617022 
" clip-path="url(#p442d6c9502)" style="fill: none; stroke: #000000"/>
    <path d="M 43.926388 110.96155 
L 161.556688 89.429736 
" clip-path="url(#p442d6c9502)" style="fill: none; stroke: #000000"/>
    <path d="M 43.926388 110.96155 
L 133.567713 35.551167 
" clip-path="url(#p442d6c9502)" style="fill: none; stroke: #ffa500; stroke-width: 4"/>
    <path d="M 43.926388 110.96155 
L 100.245721 129.609089 
" clip-path="url(#p442d6c9502)" style="fill: none; stroke: #ff0000; stroke-width: 4"/>
    <path d="M 191.855913 116.260685 
L 156.100542 157.418277 
" clip-path="url(#p442d6c9502)" style="fill: none; stroke: #000000"/>
    <path d="M 191.855913 116.260685 
L 251.422024 155.214354 
" clip-path="url(#p442d6c9502)" style="fill: none; stroke: #000000"/>
    <path d="M 191.855913 116.260685 
L 225.05188 78.18072 
" clip-path="url(#p442d6c9502)" style="fill: none; stroke: #000000"/>
    <path d="M 191.855913 116.260685 
L 173.531108 74.784206 
" clip-path="url(#p442d6c9502)" style="fill: none; stroke: #000000"/>
    <path d="M 191.855913 116.260685 
L 161.556688 89.429736 
" clip-path="url(#p442d6c9502)" style="fill: none; stroke: #000000"/>
    <path d="M 191.855913 116.260685 
L 113.014565 143.617022 
" clip-path="url(#p442d6c9502)" style="fill: none; stroke: #000000"/>
    <path d="M 156.100542 157.418277 
L 251.422024 155.214354 
" clip-path="url(#p442d6c9502)" style="fill: none; stroke: #000000"/>
    <path d="M 156.100542 157.418277 
L 155.627157 190.436531 
" clip-path="url(#p442d6c9502)" style="fill: none; stroke: #000000"/>
    <path d="M 156.100542 157.418277 
L 113.014565 143.617022 
" clip-path="url(#p442d6c9502)" style="fill: none; stroke: #000000"/>
    <path d="M 251.422024 155.214354 
L 260.119939 73.744173 
" clip-path="url(#p442d6c9502)" style="fill: none; stroke: #000000"/>
    <path d="M 251.422024 155.214354 
L 225.05188 78.18072 
" clip-path="url(#p442d6c9502)" style="fill: none; stroke: #000000"/>
    <path d="M 251.422024 155.214354 
L 225.083087 217.399172 
" clip-path="url(#p442d6c9502)" style="fill: none; stroke: #000000"/>
    <path d="M 251.422024 155.214354 
L 318.665384 192.428304 
" clip-path="url(#p442d6c9502)" style="fill: none; stroke: #000000"/>
    <path d="M 251.422024 155.214354 
L 155.627157 190.436531 
" clip-path="url(#p442d6c9502)" style="fill: none; stroke: #000000"/>
    <path d="M 251.422024 155.214354 
L 279.624808 154.430702 
" clip-path="url(#p442d6c9502)" style="fill: none; stroke: #000000"/>
    <path d="M 251.422024 155.214354 
L 214.249525 213.510733 
" clip-path="url(#p442d6c9502)" style="fill: none; stroke: #000000"/>
    <path d="M 225.05188 78.18072 
L 245.931094 46.247147 
" clip-path="url(#p442d6c9502)" style="fill: none; stroke: #000000"/>
    <path d="M 225.05188 78.18072 
L 206.532431 54.259529 
" clip-path="url(#p442d6c9502)" style="fill: none; stroke: #000000"/>
    <path d="M 225.05188 78.18072 
L 260.119939 73.744173 
" clip-path="url(#p442d6c9502)" style="fill: none; stroke: #000000"/>
    <path d="M 225.05188 78.18072 
L 173.531108 74.784206 
" clip-path="url(#p442d6c9502)" style="fill: none; stroke: #000000"/>
    <path d="M 245.931094 46.247147 
L 206.532431 54.259529 
" clip-path="url(#p442d6c9502)" style="fill: none; stroke: #000000"/>
    <path d="M 245.931094 46.247147 
L 260.119939 73.744173 
" clip-path="url(#p442d6c9502)" style="fill: none; stroke: #000000"/>
    <path d="M 245.931094 46.247147 
L 310.759478 33.411614 
" clip-path="url(#p442d6c9502)" style="fill: none; stroke: #000000"/>
    <path d="M 245.931094 46.247147 
L 220.712019 31.732176 
" clip-path="url(#p442d6c9502)" style="fill: none; stroke: #000000"/>
    <path d="M 245.931094 46.247147 
L 216.837773 38.700316 
" clip-path="url(#p442d6c9502)" style="fill: none; stroke: #000000"/>
    <path d="M 245.931094 46.247147 
L 209.98987 47.171839 
" clip-path="url(#p442d6c9502)" style="fill: none; stroke: #000000"/>
    <path d="M 206.532431 54.259529 
L 173.531108 74.784206 
" clip-path="url(#p442d6c9502)" style="fill: none; stroke: #000000"/>
    <path d="M 206.532431 54.259529 
L 135.505455 36.371318 
" clip-path="url(#p442d6c9502)" style="fill: none; stroke: #000000"/>
    <path d="M 206.532431 54.259529 
L 209.98987 47.171839 
" clip-path="url(#p442d6c9502)" style="fill: none; stroke: #000000"/>
    <path d="M 260.119939 73.744173 
L 328.77127 101.219236 
" clip-path="url(#p442d6c9502)" style="fill: none; stroke: #000000"/>
    <path d="M 260.119939 73.744173 
L 310.759478 33.411614 
" clip-path="url(#p442d6c9502)" style="fill: none; stroke: #000000"/>
    <path d="M 260.119939 73.744173 
L 279.624808 154.430702 
" clip-path="url(#p442d6c9502)" style="fill: none; stroke: #000000"/>
    <path d="M 161.556688 89.429736 
L 133.567713 35.551167 
" clip-path="url(#p442d6c9502)" style="fill: none; stroke: #000000"/>
    <path d="M 161.556688 89.429736 
L 100.245721 129.609089 
" clip-path="url(#p442d6c9502)" style="fill: none; stroke: #000000"/>
    <path d="M 161.556688 89.429736 
L 173.531108 74.784206 
" clip-path="url(#p442d6c9502)" style="fill: none; stroke: #000000"/>
    <path d="M 161.556688 89.429736 
L 113.014565 143.617022 
" clip-path="url(#p442d6c9502)" style="fill: none; stroke: #000000"/>
    <path d="M 161.556688 89.429736 
L 135.505455 36.371318 
" clip-path="url(#p442d6c9502)" style="fill: none; stroke: #000000"/>
    <path d="M 133.567713 35.551167 
L 135.505455 36.371318 
" clip-path="url(#p442d6c9502)" style="fill: none; stroke: #000000"/>
    <path d="M 133.567713 35.551167 
L 220.712019 31.732176 
" clip-path="url(#p442d6c9502)" style="fill: none; stroke: #008000; stroke-width: 4"/>
    <path d="M 310.759478 33.411614 
L 328.77127 101.219236 
" clip-path="url(#p442d6c9502)" style="fill: none; stroke: #000000"/>
    <path d="M 310.759478 33.411614 
L 333.616781 29.990083 
" clip-path="url(#p442d6c9502)" style="fill: none; stroke: #000000"/>
    <path d="M 310.759478 33.411614 
L 220.712019 31.732176 
" clip-path="url(#p442d6c9502)" style="fill: none; stroke: #008000; stroke-width: 4"/>
    <path d="M 328.77127 101.219236 
L 333.616781 29.990083 
" clip-path="url(#p442d6c9502)" style="fill: none; stroke: #000000"/>
    <path d="M 328.77127 101.219236 
L 385.442169 107.951344 
" clip-path="url(#p442d6c9502)" style="fill: none; stroke: #000000"/>
    <path d="M 328.77127 101.219236 
L 385.236965 101.296218 
" clip-path="url(#p442d6c9502)" style="fill: none; stroke: #000000"/>
    <path d="M 328.77127 101.219236 
L 353.018696 137.643182 
" clip-path="url(#p442d6c9502)" style="fill: none; stroke: #000000"/>
    <path d="M 328.77127 101.219236 
L 279.624808 154.430702 
" clip-path="url(#p442d6c9502)" style="fill: none; stroke: #000000"/>
    <path d="M 328.77127 101.219236 
L 387.31759 68.990699 
" clip-path="url(#p442d6c9502)" style="fill: none; stroke: #000000"/>
    <path d="M 333.616781 29.990083 
L 220.712019 31.732176 
" clip-path="url(#p442d6c9502)" style="fill: none; stroke: #000000"/>
    <path d="M 333.616781 29.990083 
L 387.31759 68.990699 
" clip-path="url(#p442d6c9502)" style="fill: none; stroke: #000000"/>
    <path d="M 333.616781 29.990083 
L 380.994444 42.850704 
" clip-path="url(#p442d6c9502)" style="fill: none; stroke: #000000"/>
    <path d="M 353.018696 137.643182 
L 319.936338 177.832939 
" clip-path="url(#p442d6c9502)" style="fill: none; stroke: #000000"/>
    <path d="M 353.018696 137.643182 
L 385.442169 107.951344 
" clip-path="url(#p442d6c9502)" style="fill: none; stroke: #000000"/>
    <path d="M 353.018696 137.643182 
L 279.624808 154.430702 
" clip-path="url(#p442d6c9502)" style="fill: none; stroke: #000000"/>
    <path d="M 319.936338 177.832939 
L 318.665384 192.428304 
" clip-path="url(#p442d6c9502)" style="fill: none; stroke: #000000"/>
    <path d="M 319.936338 177.832939 
L 279.624808 154.430702 
" clip-path="url(#p442d6c9502)" style="fill: none; stroke: #000000"/>
    <path d="M 225.083087 217.399172 
L 318.665384 192.428304 
" clip-path="url(#p442d6c9502)" style="fill: none; stroke: #000000"/>
    <path d="M 225.083087 217.399172 
L 220.709706 272.424958 
" clip-path="url(#p442d6c9502)" style="fill: none; stroke: #000000"/>
    <path d="M 225.083087 217.399172 
L 214.249525 213.510733 
" clip-path="url(#p442d6c9502)" style="fill: none; stroke: #000000"/>
    <path d="M 318.665384 192.428304 
L 279.624808 154.430702 
" clip-path="url(#p442d6c9502)" style="fill: none; stroke: #000000"/>
    <path d="M 220.709706 272.424958 
L 214.249525 213.510733 
" clip-path="url(#p442d6c9502)" style="fill: none; stroke: #000000"/>
    <path d="M 220.712019 31.732176 
L 216.837773 38.700316 
" clip-path="url(#p442d6c9502)" style="fill: none; stroke: #000000"/>
    <path d="M 220.712019 31.732176 
L 135.505455 36.371318 
" clip-path="url(#p442d6c9502)" style="fill: none; stroke: #000000"/>
    <path d="M 155.627157 190.436531 
L 214.249525 213.510733 
" clip-path="url(#p442d6c9502)" style="fill: none; stroke: #000000"/>
    <path d="M 100.245721 129.609089 
L 113.014565 143.617022 
" clip-path="url(#p442d6c9502)" style="fill: none; stroke: #000000"/>
    <path d="M 173.531108 74.784206 
L 135.505455 36.371318 
" clip-path="url(#p442d6c9502)" style="fill: none; stroke: #000000"/>
    <path d="M 407.503058 89.093465 
L 385.442169 107.951344 
" clip-path="url(#p442d6c9502)" style="fill: none; stroke: #000000"/>
    <path d="M 407.503058 89.093465 
L 385.236965 101.296218 
" clip-path="url(#p442d6c9502)" style="fill: none; stroke: #000000"/>
    <path d="M 407.503058 89.093465 
L 387.31759 68.990699 
" clip-path="url(#p442d6c9502)" style="fill: none; stroke: #000000"/>
    <path d="M 385.442169 107.951344 
L 385.236965 101.296218 
" clip-path="url(#p442d6c9502)" style="fill: none; stroke: #000000"/>
    <path d="M 385.236965 101.296218 
L 387.31759 68.990699 
" clip-path="url(#p442d6c9502)" style="fill: none; stroke: #000000"/>
    <path d="M 216.837773 38.700316 
L 135.505455 36.371318 
" clip-path="url(#p442d6c9502)" style="fill: none; stroke: #000000"/>
    <path d="M 216.837773 38.700316 
L 209.98987 47.171839 
" clip-path="url(#p442d6c9502)" style="fill: none; stroke: #000000"/>
    <path d="M 135.505455 36.371318 
L 209.98987 47.171839 
" clip-path="url(#p442d6c9502)" style="fill: none; stroke: #000000"/>
    <path d="M 387.31759 68.990699 
L 380.994444 42.850704 
" clip-path="url(#p442d6c9502)" style="fill: none; stroke: #000000"/>
   </g>
   <g id="PathCollection_1">
    <path d="M 417.013242 74.071966 
C 417.013242 74.071966 417.013242 74.071966 417.013242 74.071966 
C 417.013242 74.071966 417.013242 74.071966 417.013242 74.071966 
C 417.013242 74.071966 417.013242 74.071966 417.013242 74.071966 
C 417.013242 74.071966 417.013242 74.071966 417.013242 74.071966 
C 417.013242 74.071966 417.013242 74.071966 417.013242 74.071966 
C 417.013242 74.071966 417.013242 74.071966 417.013242 74.071966 
C 417.013242 74.071966 417.013242 74.071966 417.013242 74.071966 
C 417.013242 74.071966 417.013242 74.071966 417.013242 74.071966 
z
" clip-path="url(#p442d6c9502)" style="fill: #1f78b4; stroke: #1f78b4"/>
    <path d="M 395.501265 136.19415 
C 395.501265 136.19415 395.501265 136.19415 395.501265 136.19415 
C 395.501265 136.19415 395.501265 136.19415 395.501265 136.19415 
C 395.501265 136.19415 395.501265 136.19415 395.501265 136.19415 
C 395.501265 136.19415 395.501265 136.19415 395.501265 136.19415 
C 395.501265 136.19415 395.501265 136.19415 395.501265 136.19415 
C 395.501265 136.19415 395.501265 136.19415 395.501265 136.19415 
C 395.501265 136.19415 395.501265 136.19415 395.501265 136.19415 
C 395.501265 136.19415 395.501265 136.19415 395.501265 136.19415 
z
" clip-path="url(#p442d6c9502)" style="fill: #1f78b4; stroke: #1f78b4"/>
    <path d="M 420.813223 242.538844 
C 420.813223 242.538844 420.813223 242.538844 420.813223 242.538844 
C 420.813223 242.538844 420.813223 242.538844 420.813223 242.538844 
C 420.813223 242.538844 420.813223 242.538844 420.813223 242.538844 
C 420.813223 242.538844 420.813223 242.538844 420.813223 242.538844 
C 420.813223 242.538844 420.813223 242.538844 420.813223 242.538844 
C 420.813223 242.538844 420.813223 242.538844 420.813223 242.538844 
C 420.813223 242.538844 420.813223 242.538844 420.813223 242.538844 
C 420.813223 242.538844 420.813223 242.538844 420.813223 242.538844 
z
" clip-path="url(#p442d6c9502)" style="fill: #1f78b4; stroke: #1f78b4"/>
    <path d="M 355.711824 294.852763 
C 355.711824 294.852763 355.711824 294.852763 355.711824 294.852763 
C 355.711824 294.852763 355.711824 294.852763 355.711824 294.852763 
C 355.711824 294.852763 355.711824 294.852763 355.711824 294.852763 
C 355.711824 294.852763 355.711824 294.852763 355.711824 294.852763 
C 355.711824 294.852763 355.711824 294.852763 355.711824 294.852763 
C 355.711824 294.852763 355.711824 294.852763 355.711824 294.852763 
C 355.711824 294.852763 355.711824 294.852763 355.711824 294.852763 
C 355.711824 294.852763 355.711824 294.852763 355.711824 294.852763 
z
" clip-path="url(#p442d6c9502)" style="fill: #1f78b4; stroke: #1f78b4"/>
    <path d="M 320.637781 205.79044 
C 320.637781 205.79044 320.637781 205.79044 320.637781 205.79044 
C 320.637781 205.79044 320.637781 205.79044 320.637781 205.79044 
C 320.637781 205.79044 320.637781 205.79044 320.637781 205.79044 
C 320.637781 205.79044 320.637781 205.79044 320.637781 205.79044 
C 320.637781 205.79044 320.637781 205.79044 320.637781 205.79044 
C 320.637781 205.79044 320.637781 205.79044 320.637781 205.79044 
C 320.637781 205.79044 320.637781 205.79044 320.637781 205.79044 
C 320.637781 205.79044 320.637781 205.79044 320.637781 205.79044 
z
" clip-path="url(#p442d6c9502)" style="fill: #1f78b4; stroke: #1f78b4"/>
    <path d="M 283.343438 236.146479 
C 283.343438 236.146479 283.343438 236.146479 283.343438 236.146479 
C 283.343438 236.146479 283.343438 236.146479 283.343438 236.146479 
C 283.343438 236.146479 283.343438 236.146479 283.343438 236.146479 
C 283.343438 236.146479 283.343438 236.146479 283.343438 236.146479 
C 283.343438 236.146479 283.343438 236.146479 283.343438 236.146479 
C 283.343438 236.146479 283.343438 236.146479 283.343438 236.146479 
C 283.343438 236.146479 283.343438 236.146479 283.343438 236.146479 
C 283.343438 236.146479 283.343438 236.146479 283.343438 236.146479 
z
" clip-path="url(#p442d6c9502)" style="fill: #1f78b4; stroke: #1f78b4"/>
    <path d="M 293.678611 320.609917 
C 295.004626 320.609917 296.27651 320.083086 297.214144 319.145451 
C 298.151779 318.207817 298.678611 316.935933 298.678611 315.609917 
C 298.678611 314.283902 298.151779 313.012018 297.214144 312.074383 
C 296.27651 311.136749 295.004626 310.609917 293.678611 310.609917 
C 292.352595 310.609917 291.080711 311.136749 290.143077 312.074383 
C 289.205442 313.012018 288.678611 314.283902 288.678611 315.609917 
C 288.678611 316.935933 289.205442 318.207817 290.143077 319.145451 
C 291.080711 320.083086 292.352595 320.609917 293.678611 320.609917 
z
" clip-path="url(#p442d6c9502)" style="fill: #1f78b4; stroke: #1f78b4"/>
    <path d="M 389.735873 290.119708 
C 389.735873 290.119708 389.735873 290.119708 389.735873 290.119708 
C 389.735873 290.119708 389.735873 290.119708 389.735873 290.119708 
C 389.735873 290.119708 389.735873 290.119708 389.735873 290.119708 
C 389.735873 290.119708 389.735873 290.119708 389.735873 290.119708 
C 389.735873 290.119708 389.735873 290.119708 389.735873 290.119708 
C 389.735873 290.119708 389.735873 290.119708 389.735873 290.119708 
C 389.735873 290.119708 389.735873 290.119708 389.735873 290.119708 
C 389.735873 290.119708 389.735873 290.119708 389.735873 290.119708 
z
" clip-path="url(#p442d6c9502)" style="fill: #1f78b4; stroke: #1f78b4"/>
    <path d="M 379.413744 178.045662 
C 379.413744 178.045662 379.413744 178.045662 379.413744 178.045662 
C 379.413744 178.045662 379.413744 178.045662 379.413744 178.045662 
C 379.413744 178.045662 379.413744 178.045662 379.413744 178.045662 
C 379.413744 178.045662 379.413744 178.045662 379.413744 178.045662 
C 379.413744 178.045662 379.413744 178.045662 379.413744 178.045662 
C 379.413744 178.045662 379.413744 178.045662 379.413744 178.045662 
C 379.413744 178.045662 379.413744 178.045662 379.413744 178.045662 
C 379.413744 178.045662 379.413744 178.045662 379.413744 178.045662 
z
" clip-path="url(#p442d6c9502)" style="fill: #1f78b4; stroke: #1f78b4"/>
    <path d="M 385.004765 151.716956 
C 385.004765 151.716956 385.004765 151.716956 385.004765 151.716956 
C 385.004765 151.716956 385.004765 151.716956 385.004765 151.716956 
C 385.004765 151.716956 385.004765 151.716956 385.004765 151.716956 
C 385.004765 151.716956 385.004765 151.716956 385.004765 151.716956 
C 385.004765 151.716956 385.004765 151.716956 385.004765 151.716956 
C 385.004765 151.716956 385.004765 151.716956 385.004765 151.716956 
C 385.004765 151.716956 385.004765 151.716956 385.004765 151.716956 
C 385.004765 151.716956 385.004765 151.716956 385.004765 151.716956 
z
" clip-path="url(#p442d6c9502)" style="fill: #1f78b4; stroke: #1f78b4"/>
    <path d="M 195.712678 301.735004 
C 195.712678 301.735004 195.712678 301.735004 195.712678 301.735004 
C 195.712678 301.735004 195.712678 301.735004 195.712678 301.735004 
C 195.712678 301.735004 195.712678 301.735004 195.712678 301.735004 
C 195.712678 301.735004 195.712678 301.735004 195.712678 301.735004 
C 195.712678 301.735004 195.712678 301.735004 195.712678 301.735004 
C 195.712678 301.735004 195.712678 301.735004 195.712678 301.735004 
C 195.712678 301.735004 195.712678 301.735004 195.712678 301.735004 
C 195.712678 301.735004 195.712678 301.735004 195.712678 301.735004 
z
" clip-path="url(#p442d6c9502)" style="fill: #1f78b4; stroke: #1f78b4"/>
    <path d="M 265.177064 303.087296 
C 265.177064 303.087296 265.177064 303.087296 265.177064 303.087296 
C 265.177064 303.087296 265.177064 303.087296 265.177064 303.087296 
C 265.177064 303.087296 265.177064 303.087296 265.177064 303.087296 
C 265.177064 303.087296 265.177064 303.087296 265.177064 303.087296 
C 265.177064 303.087296 265.177064 303.087296 265.177064 303.087296 
C 265.177064 303.087296 265.177064 303.087296 265.177064 303.087296 
C 265.177064 303.087296 265.177064 303.087296 265.177064 303.087296 
C 265.177064 303.087296 265.177064 303.087296 265.177064 303.087296 
z
" clip-path="url(#p442d6c9502)" style="fill: #1f78b4; stroke: #1f78b4"/>
    <path d="M 213.15187 290.688522 
C 213.15187 290.688522 213.15187 290.688522 213.15187 290.688522 
C 213.15187 290.688522 213.15187 290.688522 213.15187 290.688522 
C 213.15187 290.688522 213.15187 290.688522 213.15187 290.688522 
C 213.15187 290.688522 213.15187 290.688522 213.15187 290.688522 
C 213.15187 290.688522 213.15187 290.688522 213.15187 290.688522 
C 213.15187 290.688522 213.15187 290.688522 213.15187 290.688522 
C 213.15187 290.688522 213.15187 290.688522 213.15187 290.688522 
C 213.15187 290.688522 213.15187 290.688522 213.15187 290.688522 
z
" clip-path="url(#p442d6c9502)" style="fill: #1f78b4; stroke: #1f78b4"/>
    <path d="M 68.023815 231.728655 
C 68.023815 231.728655 68.023815 231.728655 68.023815 231.728655 
C 68.023815 231.728655 68.023815 231.728655 68.023815 231.728655 
C 68.023815 231.728655 68.023815 231.728655 68.023815 231.728655 
C 68.023815 231.728655 68.023815 231.728655 68.023815 231.728655 
C 68.023815 231.728655 68.023815 231.728655 68.023815 231.728655 
C 68.023815 231.728655 68.023815 231.728655 68.023815 231.728655 
C 68.023815 231.728655 68.023815 231.728655 68.023815 231.728655 
C 68.023815 231.728655 68.023815 231.728655 68.023815 231.728655 
z
" clip-path="url(#p442d6c9502)" style="fill: #1f78b4; stroke: #1f78b4"/>
    <path d="M 39.986777 278.127589 
C 39.986777 278.127589 39.986777 278.127589 39.986777 278.127589 
C 39.986777 278.127589 39.986777 278.127589 39.986777 278.127589 
C 39.986777 278.127589 39.986777 278.127589 39.986777 278.127589 
C 39.986777 278.127589 39.986777 278.127589 39.986777 278.127589 
C 39.986777 278.127589 39.986777 278.127589 39.986777 278.127589 
C 39.986777 278.127589 39.986777 278.127589 39.986777 278.127589 
C 39.986777 278.127589 39.986777 278.127589 39.986777 278.127589 
C 39.986777 278.127589 39.986777 278.127589 39.986777 278.127589 
z
" clip-path="url(#p442d6c9502)" style="fill: #1f78b4; stroke: #1f78b4"/>
    <path d="M 154.606284 199.298954 
C 154.606284 199.298954 154.606284 199.298954 154.606284 199.298954 
C 154.606284 199.298954 154.606284 199.298954 154.606284 199.298954 
C 154.606284 199.298954 154.606284 199.298954 154.606284 199.298954 
C 154.606284 199.298954 154.606284 199.298954 154.606284 199.298954 
C 154.606284 199.298954 154.606284 199.298954 154.606284 199.298954 
C 154.606284 199.298954 154.606284 199.298954 154.606284 199.298954 
C 154.606284 199.298954 154.606284 199.298954 154.606284 199.298954 
C 154.606284 199.298954 154.606284 199.298954 154.606284 199.298954 
z
" clip-path="url(#p442d6c9502)" style="fill: #1f78b4; stroke: #1f78b4"/>
    <path d="M 98.599604 181.968876 
C 98.599604 181.968876 98.599604 181.968876 98.599604 181.968876 
C 98.599604 181.968876 98.599604 181.968876 98.599604 181.968876 
C 98.599604 181.968876 98.599604 181.968876 98.599604 181.968876 
C 98.599604 181.968876 98.599604 181.968876 98.599604 181.968876 
C 98.599604 181.968876 98.599604 181.968876 98.599604 181.968876 
C 98.599604 181.968876 98.599604 181.968876 98.599604 181.968876 
C 98.599604 181.968876 98.599604 181.968876 98.599604 181.968876 
C 98.599604 181.968876 98.599604 181.968876 98.599604 181.968876 
z
" clip-path="url(#p442d6c9502)" style="fill: #1f78b4; stroke: #1f78b4"/>
    <path d="M 43.926388 110.96155 
C 43.926388 110.96155 43.926388 110.96155 43.926388 110.96155 
C 43.926388 110.96155 43.926388 110.96155 43.926388 110.96155 
C 43.926388 110.96155 43.926388 110.96155 43.926388 110.96155 
C 43.926388 110.96155 43.926388 110.96155 43.926388 110.96155 
C 43.926388 110.96155 43.926388 110.96155 43.926388 110.96155 
C 43.926388 110.96155 43.926388 110.96155 43.926388 110.96155 
C 43.926388 110.96155 43.926388 110.96155 43.926388 110.96155 
C 43.926388 110.96155 43.926388 110.96155 43.926388 110.96155 
z
" clip-path="url(#p442d6c9502)" style="fill: #1f78b4; stroke: #1f78b4"/>
    <path d="M 191.855913 116.260685 
C 191.855913 116.260685 191.855913 116.260685 191.855913 116.260685 
C 191.855913 116.260685 191.855913 116.260685 191.855913 116.260685 
C 191.855913 116.260685 191.855913 116.260685 191.855913 116.260685 
C 191.855913 116.260685 191.855913 116.260685 191.855913 116.260685 
C 191.855913 116.260685 191.855913 116.260685 191.855913 116.260685 
C 191.855913 116.260685 191.855913 116.260685 191.855913 116.260685 
C 191.855913 116.260685 191.855913 116.260685 191.855913 116.260685 
C 191.855913 116.260685 191.855913 116.260685 191.855913 116.260685 
z
" clip-path="url(#p442d6c9502)" style="fill: #1f78b4; stroke: #1f78b4"/>
    <path d="M 156.100542 157.418277 
C 156.100542 157.418277 156.100542 157.418277 156.100542 157.418277 
C 156.100542 157.418277 156.100542 157.418277 156.100542 157.418277 
C 156.100542 157.418277 156.100542 157.418277 156.100542 157.418277 
C 156.100542 157.418277 156.100542 157.418277 156.100542 157.418277 
C 156.100542 157.418277 156.100542 157.418277 156.100542 157.418277 
C 156.100542 157.418277 156.100542 157.418277 156.100542 157.418277 
C 156.100542 157.418277 156.100542 157.418277 156.100542 157.418277 
C 156.100542 157.418277 156.100542 157.418277 156.100542 157.418277 
z
" clip-path="url(#p442d6c9502)" style="fill: #1f78b4; stroke: #1f78b4"/>
    <path d="M 251.422024 155.214354 
C 251.422024 155.214354 251.422024 155.214354 251.422024 155.214354 
C 251.422024 155.214354 251.422024 155.214354 251.422024 155.214354 
C 251.422024 155.214354 251.422024 155.214354 251.422024 155.214354 
C 251.422024 155.214354 251.422024 155.214354 251.422024 155.214354 
C 251.422024 155.214354 251.422024 155.214354 251.422024 155.214354 
C 251.422024 155.214354 251.422024 155.214354 251.422024 155.214354 
C 251.422024 155.214354 251.422024 155.214354 251.422024 155.214354 
C 251.422024 155.214354 251.422024 155.214354 251.422024 155.214354 
z
" clip-path="url(#p442d6c9502)" style="fill: #1f78b4; stroke: #1f78b4"/>
    <path d="M 225.05188 78.18072 
C 225.05188 78.18072 225.05188 78.18072 225.05188 78.18072 
C 225.05188 78.18072 225.05188 78.18072 225.05188 78.18072 
C 225.05188 78.18072 225.05188 78.18072 225.05188 78.18072 
C 225.05188 78.18072 225.05188 78.18072 225.05188 78.18072 
C 225.05188 78.18072 225.05188 78.18072 225.05188 78.18072 
C 225.05188 78.18072 225.05188 78.18072 225.05188 78.18072 
C 225.05188 78.18072 225.05188 78.18072 225.05188 78.18072 
C 225.05188 78.18072 225.05188 78.18072 225.05188 78.18072 
z
" clip-path="url(#p442d6c9502)" style="fill: #1f78b4; stroke: #1f78b4"/>
    <path d="M 245.931094 46.247147 
C 245.931094 46.247147 245.931094 46.247147 245.931094 46.247147 
C 245.931094 46.247147 245.931094 46.247147 245.931094 46.247147 
C 245.931094 46.247147 245.931094 46.247147 245.931094 46.247147 
C 245.931094 46.247147 245.931094 46.247147 245.931094 46.247147 
C 245.931094 46.247147 245.931094 46.247147 245.931094 46.247147 
C 245.931094 46.247147 245.931094 46.247147 245.931094 46.247147 
C 245.931094 46.247147 245.931094 46.247147 245.931094 46.247147 
C 245.931094 46.247147 245.931094 46.247147 245.931094 46.247147 
z
" clip-path="url(#p442d6c9502)" style="fill: #1f78b4; stroke: #1f78b4"/>
    <path d="M 206.532431 54.259529 
C 206.532431 54.259529 206.532431 54.259529 206.532431 54.259529 
C 206.532431 54.259529 206.532431 54.259529 206.532431 54.259529 
C 206.532431 54.259529 206.532431 54.259529 206.532431 54.259529 
C 206.532431 54.259529 206.532431 54.259529 206.532431 54.259529 
C 206.532431 54.259529 206.532431 54.259529 206.532431 54.259529 
C 206.532431 54.259529 206.532431 54.259529 206.532431 54.259529 
C 206.532431 54.259529 206.532431 54.259529 206.532431 54.259529 
C 206.532431 54.259529 206.532431 54.259529 206.532431 54.259529 
z
" clip-path="url(#p442d6c9502)" style="fill: #1f78b4; stroke: #1f78b4"/>
    <path d="M 260.119939 73.744173 
C 260.119939 73.744173 260.119939 73.744173 260.119939 73.744173 
C 260.119939 73.744173 260.119939 73.744173 260.119939 73.744173 
C 260.119939 73.744173 260.119939 73.744173 260.119939 73.744173 
C 260.119939 73.744173 260.119939 73.744173 260.119939 73.744173 
C 260.119939 73.744173 260.119939 73.744173 260.119939 73.744173 
C 260.119939 73.744173 260.119939 73.744173 260.119939 73.744173 
C 260.119939 73.744173 260.119939 73.744173 260.119939 73.744173 
C 260.119939 73.744173 260.119939 73.744173 260.119939 73.744173 
z
" clip-path="url(#p442d6c9502)" style="fill: #1f78b4; stroke: #1f78b4"/>
    <path d="M 161.556688 89.429736 
C 161.556688 89.429736 161.556688 89.429736 161.556688 89.429736 
C 161.556688 89.429736 161.556688 89.429736 161.556688 89.429736 
C 161.556688 89.429736 161.556688 89.429736 161.556688 89.429736 
C 161.556688 89.429736 161.556688 89.429736 161.556688 89.429736 
C 161.556688 89.429736 161.556688 89.429736 161.556688 89.429736 
C 161.556688 89.429736 161.556688 89.429736 161.556688 89.429736 
C 161.556688 89.429736 161.556688 89.429736 161.556688 89.429736 
C 161.556688 89.429736 161.556688 89.429736 161.556688 89.429736 
z
" clip-path="url(#p442d6c9502)" style="fill: #1f78b4; stroke: #1f78b4"/>
    <path d="M 133.567713 35.551167 
C 133.567713 35.551167 133.567713 35.551167 133.567713 35.551167 
C 133.567713 35.551167 133.567713 35.551167 133.567713 35.551167 
C 133.567713 35.551167 133.567713 35.551167 133.567713 35.551167 
C 133.567713 35.551167 133.567713 35.551167 133.567713 35.551167 
C 133.567713 35.551167 133.567713 35.551167 133.567713 35.551167 
C 133.567713 35.551167 133.567713 35.551167 133.567713 35.551167 
C 133.567713 35.551167 133.567713 35.551167 133.567713 35.551167 
C 133.567713 35.551167 133.567713 35.551167 133.567713 35.551167 
z
" clip-path="url(#p442d6c9502)" style="fill: #1f78b4; stroke: #1f78b4"/>
    <path d="M 310.759478 38.411614 
C 312.085493 38.411614 313.357377 37.884782 314.295012 36.947148 
C 315.232646 36.009513 315.759478 34.737629 315.759478 33.411614 
C 315.759478 32.085598 315.232646 30.813715 314.295012 29.87608 
C 313.357377 28.938445 312.085493 28.411614 310.759478 28.411614 
C 309.433462 28.411614 308.161578 28.938445 307.223944 29.87608 
C 306.286309 30.813715 305.759478 32.085598 305.759478 33.411614 
C 305.759478 34.737629 306.286309 36.009513 307.223944 36.947148 
C 308.161578 37.884782 309.433462 38.411614 310.759478 38.411614 
z
" clip-path="url(#p442d6c9502)" style="fill: #1f78b4; stroke: #1f78b4"/>
    <path d="M 328.77127 101.219236 
C 328.77127 101.219236 328.77127 101.219236 328.77127 101.219236 
C 328.77127 101.219236 328.77127 101.219236 328.77127 101.219236 
C 328.77127 101.219236 328.77127 101.219236 328.77127 101.219236 
C 328.77127 101.219236 328.77127 101.219236 328.77127 101.219236 
C 328.77127 101.219236 328.77127 101.219236 328.77127 101.219236 
C 328.77127 101.219236 328.77127 101.219236 328.77127 101.219236 
C 328.77127 101.219236 328.77127 101.219236 328.77127 101.219236 
C 328.77127 101.219236 328.77127 101.219236 328.77127 101.219236 
z
" clip-path="url(#p442d6c9502)" style="fill: #1f78b4; stroke: #1f78b4"/>
    <path d="M 333.616781 29.990083 
C 333.616781 29.990083 333.616781 29.990083 333.616781 29.990083 
C 333.616781 29.990083 333.616781 29.990083 333.616781 29.990083 
C 333.616781 29.990083 333.616781 29.990083 333.616781 29.990083 
C 333.616781 29.990083 333.616781 29.990083 333.616781 29.990083 
C 333.616781 29.990083 333.616781 29.990083 333.616781 29.990083 
C 333.616781 29.990083 333.616781 29.990083 333.616781 29.990083 
C 333.616781 29.990083 333.616781 29.990083 333.616781 29.990083 
C 333.616781 29.990083 333.616781 29.990083 333.616781 29.990083 
z
" clip-path="url(#p442d6c9502)" style="fill: #1f78b4; stroke: #1f78b4"/>
    <path d="M 353.018696 137.643182 
C 353.018696 137.643182 353.018696 137.643182 353.018696 137.643182 
C 353.018696 137.643182 353.018696 137.643182 353.018696 137.643182 
C 353.018696 137.643182 353.018696 137.643182 353.018696 137.643182 
C 353.018696 137.643182 353.018696 137.643182 353.018696 137.643182 
C 353.018696 137.643182 353.018696 137.643182 353.018696 137.643182 
C 353.018696 137.643182 353.018696 137.643182 353.018696 137.643182 
C 353.018696 137.643182 353.018696 137.643182 353.018696 137.643182 
C 353.018696 137.643182 353.018696 137.643182 353.018696 137.643182 
z
" clip-path="url(#p442d6c9502)" style="fill: #1f78b4; stroke: #1f78b4"/>
    <path d="M 319.936338 177.832939 
C 319.936338 177.832939 319.936338 177.832939 319.936338 177.832939 
C 319.936338 177.832939 319.936338 177.832939 319.936338 177.832939 
C 319.936338 177.832939 319.936338 177.832939 319.936338 177.832939 
C 319.936338 177.832939 319.936338 177.832939 319.936338 177.832939 
C 319.936338 177.832939 319.936338 177.832939 319.936338 177.832939 
C 319.936338 177.832939 319.936338 177.832939 319.936338 177.832939 
C 319.936338 177.832939 319.936338 177.832939 319.936338 177.832939 
C 319.936338 177.832939 319.936338 177.832939 319.936338 177.832939 
z
" clip-path="url(#p442d6c9502)" style="fill: #1f78b4; stroke: #1f78b4"/>
    <path d="M 225.083087 217.399172 
C 225.083087 217.399172 225.083087 217.399172 225.083087 217.399172 
C 225.083087 217.399172 225.083087 217.399172 225.083087 217.399172 
C 225.083087 217.399172 225.083087 217.399172 225.083087 217.399172 
C 225.083087 217.399172 225.083087 217.399172 225.083087 217.399172 
C 225.083087 217.399172 225.083087 217.399172 225.083087 217.399172 
C 225.083087 217.399172 225.083087 217.399172 225.083087 217.399172 
C 225.083087 217.399172 225.083087 217.399172 225.083087 217.399172 
C 225.083087 217.399172 225.083087 217.399172 225.083087 217.399172 
z
" clip-path="url(#p442d6c9502)" style="fill: #1f78b4; stroke: #1f78b4"/>
    <path d="M 318.665384 192.428304 
C 318.665384 192.428304 318.665384 192.428304 318.665384 192.428304 
C 318.665384 192.428304 318.665384 192.428304 318.665384 192.428304 
C 318.665384 192.428304 318.665384 192.428304 318.665384 192.428304 
C 318.665384 192.428304 318.665384 192.428304 318.665384 192.428304 
C 318.665384 192.428304 318.665384 192.428304 318.665384 192.428304 
C 318.665384 192.428304 318.665384 192.428304 318.665384 192.428304 
C 318.665384 192.428304 318.665384 192.428304 318.665384 192.428304 
C 318.665384 192.428304 318.665384 192.428304 318.665384 192.428304 
z
" clip-path="url(#p442d6c9502)" style="fill: #1f78b4; stroke: #1f78b4"/>
    <path d="M 220.709706 272.424958 
C 220.709706 272.424958 220.709706 272.424958 220.709706 272.424958 
C 220.709706 272.424958 220.709706 272.424958 220.709706 272.424958 
C 220.709706 272.424958 220.709706 272.424958 220.709706 272.424958 
C 220.709706 272.424958 220.709706 272.424958 220.709706 272.424958 
C 220.709706 272.424958 220.709706 272.424958 220.709706 272.424958 
C 220.709706 272.424958 220.709706 272.424958 220.709706 272.424958 
C 220.709706 272.424958 220.709706 272.424958 220.709706 272.424958 
C 220.709706 272.424958 220.709706 272.424958 220.709706 272.424958 
z
" clip-path="url(#p442d6c9502)" style="fill: #1f78b4; stroke: #1f78b4"/>
    <path d="M 220.712019 31.732176 
C 220.712019 31.732176 220.712019 31.732176 220.712019 31.732176 
C 220.712019 31.732176 220.712019 31.732176 220.712019 31.732176 
C 220.712019 31.732176 220.712019 31.732176 220.712019 31.732176 
C 220.712019 31.732176 220.712019 31.732176 220.712019 31.732176 
C 220.712019 31.732176 220.712019 31.732176 220.712019 31.732176 
C 220.712019 31.732176 220.712019 31.732176 220.712019 31.732176 
C 220.712019 31.732176 220.712019 31.732176 220.712019 31.732176 
C 220.712019 31.732176 220.712019 31.732176 220.712019 31.732176 
z
" clip-path="url(#p442d6c9502)" style="fill: #1f78b4; stroke: #1f78b4"/>
    <path d="M 155.627157 190.436531 
C 155.627157 190.436531 155.627157 190.436531 155.627157 190.436531 
C 155.627157 190.436531 155.627157 190.436531 155.627157 190.436531 
C 155.627157 190.436531 155.627157 190.436531 155.627157 190.436531 
C 155.627157 190.436531 155.627157 190.436531 155.627157 190.436531 
C 155.627157 190.436531 155.627157 190.436531 155.627157 190.436531 
C 155.627157 190.436531 155.627157 190.436531 155.627157 190.436531 
C 155.627157 190.436531 155.627157 190.436531 155.627157 190.436531 
C 155.627157 190.436531 155.627157 190.436531 155.627157 190.436531 
z
" clip-path="url(#p442d6c9502)" style="fill: #1f78b4; stroke: #1f78b4"/>
    <path d="M 100.245721 129.609089 
C 100.245721 129.609089 100.245721 129.609089 100.245721 129.609089 
C 100.245721 129.609089 100.245721 129.609089 100.245721 129.609089 
C 100.245721 129.609089 100.245721 129.609089 100.245721 129.609089 
C 100.245721 129.609089 100.245721 129.609089 100.245721 129.609089 
C 100.245721 129.609089 100.245721 129.609089 100.245721 129.609089 
C 100.245721 129.609089 100.245721 129.609089 100.245721 129.609089 
C 100.245721 129.609089 100.245721 129.609089 100.245721 129.609089 
C 100.245721 129.609089 100.245721 129.609089 100.245721 129.609089 
z
" clip-path="url(#p442d6c9502)" style="fill: #1f78b4; stroke: #1f78b4"/>
    <path d="M 173.531108 74.784206 
C 173.531108 74.784206 173.531108 74.784206 173.531108 74.784206 
C 173.531108 74.784206 173.531108 74.784206 173.531108 74.784206 
C 173.531108 74.784206 173.531108 74.784206 173.531108 74.784206 
C 173.531108 74.784206 173.531108 74.784206 173.531108 74.784206 
C 173.531108 74.784206 173.531108 74.784206 173.531108 74.784206 
C 173.531108 74.784206 173.531108 74.784206 173.531108 74.784206 
C 173.531108 74.784206 173.531108 74.784206 173.531108 74.784206 
C 173.531108 74.784206 173.531108 74.784206 173.531108 74.784206 
z
" clip-path="url(#p442d6c9502)" style="fill: #1f78b4; stroke: #1f78b4"/>
    <path d="M 407.503058 89.093465 
C 407.503058 89.093465 407.503058 89.093465 407.503058 89.093465 
C 407.503058 89.093465 407.503058 89.093465 407.503058 89.093465 
C 407.503058 89.093465 407.503058 89.093465 407.503058 89.093465 
C 407.503058 89.093465 407.503058 89.093465 407.503058 89.093465 
C 407.503058 89.093465 407.503058 89.093465 407.503058 89.093465 
C 407.503058 89.093465 407.503058 89.093465 407.503058 89.093465 
C 407.503058 89.093465 407.503058 89.093465 407.503058 89.093465 
C 407.503058 89.093465 407.503058 89.093465 407.503058 89.093465 
z
" clip-path="url(#p442d6c9502)" style="fill: #1f78b4; stroke: #1f78b4"/>
    <path d="M 385.442169 107.951344 
C 385.442169 107.951344 385.442169 107.951344 385.442169 107.951344 
C 385.442169 107.951344 385.442169 107.951344 385.442169 107.951344 
C 385.442169 107.951344 385.442169 107.951344 385.442169 107.951344 
C 385.442169 107.951344 385.442169 107.951344 385.442169 107.951344 
C 385.442169 107.951344 385.442169 107.951344 385.442169 107.951344 
C 385.442169 107.951344 385.442169 107.951344 385.442169 107.951344 
C 385.442169 107.951344 385.442169 107.951344 385.442169 107.951344 
C 385.442169 107.951344 385.442169 107.951344 385.442169 107.951344 
z
" clip-path="url(#p442d6c9502)" style="fill: #1f78b4; stroke: #1f78b4"/>
    <path d="M 385.236965 101.296218 
C 385.236965 101.296218 385.236965 101.296218 385.236965 101.296218 
C 385.236965 101.296218 385.236965 101.296218 385.236965 101.296218 
C 385.236965 101.296218 385.236965 101.296218 385.236965 101.296218 
C 385.236965 101.296218 385.236965 101.296218 385.236965 101.296218 
C 385.236965 101.296218 385.236965 101.296218 385.236965 101.296218 
C 385.236965 101.296218 385.236965 101.296218 385.236965 101.296218 
C 385.236965 101.296218 385.236965 101.296218 385.236965 101.296218 
C 385.236965 101.296218 385.236965 101.296218 385.236965 101.296218 
z
" clip-path="url(#p442d6c9502)" style="fill: #1f78b4; stroke: #1f78b4"/>
    <path d="M 279.624808 154.430702 
C 279.624808 154.430702 279.624808 154.430702 279.624808 154.430702 
C 279.624808 154.430702 279.624808 154.430702 279.624808 154.430702 
C 279.624808 154.430702 279.624808 154.430702 279.624808 154.430702 
C 279.624808 154.430702 279.624808 154.430702 279.624808 154.430702 
C 279.624808 154.430702 279.624808 154.430702 279.624808 154.430702 
C 279.624808 154.430702 279.624808 154.430702 279.624808 154.430702 
C 279.624808 154.430702 279.624808 154.430702 279.624808 154.430702 
C 279.624808 154.430702 279.624808 154.430702 279.624808 154.430702 
z
" clip-path="url(#p442d6c9502)" style="fill: #1f78b4; stroke: #1f78b4"/>
    <path d="M 214.249525 213.510733 
C 214.249525 213.510733 214.249525 213.510733 214.249525 213.510733 
C 214.249525 213.510733 214.249525 213.510733 214.249525 213.510733 
C 214.249525 213.510733 214.249525 213.510733 214.249525 213.510733 
C 214.249525 213.510733 214.249525 213.510733 214.249525 213.510733 
C 214.249525 213.510733 214.249525 213.510733 214.249525 213.510733 
C 214.249525 213.510733 214.249525 213.510733 214.249525 213.510733 
C 214.249525 213.510733 214.249525 213.510733 214.249525 213.510733 
C 214.249525 213.510733 214.249525 213.510733 214.249525 213.510733 
z
" clip-path="url(#p442d6c9502)" style="fill: #1f78b4; stroke: #1f78b4"/>
    <path d="M 216.837773 38.700316 
C 216.837773 38.700316 216.837773 38.700316 216.837773 38.700316 
C 216.837773 38.700316 216.837773 38.700316 216.837773 38.700316 
C 216.837773 38.700316 216.837773 38.700316 216.837773 38.700316 
C 216.837773 38.700316 216.837773 38.700316 216.837773 38.700316 
C 216.837773 38.700316 216.837773 38.700316 216.837773 38.700316 
C 216.837773 38.700316 216.837773 38.700316 216.837773 38.700316 
C 216.837773 38.700316 216.837773 38.700316 216.837773 38.700316 
C 216.837773 38.700316 216.837773 38.700316 216.837773 38.700316 
z
" clip-path="url(#p442d6c9502)" style="fill: #1f78b4; stroke: #1f78b4"/>
    <path d="M 113.014565 143.617022 
C 113.014565 143.617022 113.014565 143.617022 113.014565 143.617022 
C 113.014565 143.617022 113.014565 143.617022 113.014565 143.617022 
C 113.014565 143.617022 113.014565 143.617022 113.014565 143.617022 
C 113.014565 143.617022 113.014565 143.617022 113.014565 143.617022 
C 113.014565 143.617022 113.014565 143.617022 113.014565 143.617022 
C 113.014565 143.617022 113.014565 143.617022 113.014565 143.617022 
C 113.014565 143.617022 113.014565 143.617022 113.014565 143.617022 
C 113.014565 143.617022 113.014565 143.617022 113.014565 143.617022 
z
" clip-path="url(#p442d6c9502)" style="fill: #1f78b4; stroke: #1f78b4"/>
    <path d="M 135.505455 36.371318 
C 135.505455 36.371318 135.505455 36.371318 135.505455 36.371318 
C 135.505455 36.371318 135.505455 36.371318 135.505455 36.371318 
C 135.505455 36.371318 135.505455 36.371318 135.505455 36.371318 
C 135.505455 36.371318 135.505455 36.371318 135.505455 36.371318 
C 135.505455 36.371318 135.505455 36.371318 135.505455 36.371318 
C 135.505455 36.371318 135.505455 36.371318 135.505455 36.371318 
C 135.505455 36.371318 135.505455 36.371318 135.505455 36.371318 
C 135.505455 36.371318 135.505455 36.371318 135.505455 36.371318 
z
" clip-path="url(#p442d6c9502)" style="fill: #1f78b4; stroke: #1f78b4"/>
    <path d="M 387.31759 68.990699 
C 387.31759 68.990699 387.31759 68.990699 387.31759 68.990699 
C 387.31759 68.990699 387.31759 68.990699 387.31759 68.990699 
C 387.31759 68.990699 387.31759 68.990699 387.31759 68.990699 
C 387.31759 68.990699 387.31759 68.990699 387.31759 68.990699 
C 387.31759 68.990699 387.31759 68.990699 387.31759 68.990699 
C 387.31759 68.990699 387.31759 68.990699 387.31759 68.990699 
C 387.31759 68.990699 387.31759 68.990699 387.31759 68.990699 
C 387.31759 68.990699 387.31759 68.990699 387.31759 68.990699 
z
" clip-path="url(#p442d6c9502)" style="fill: #1f78b4; stroke: #1f78b4"/>
    <path d="M 380.994444 42.850704 
C 380.994444 42.850704 380.994444 42.850704 380.994444 42.850704 
C 380.994444 42.850704 380.994444 42.850704 380.994444 42.850704 
C 380.994444 42.850704 380.994444 42.850704 380.994444 42.850704 
C 380.994444 42.850704 380.994444 42.850704 380.994444 42.850704 
C 380.994444 42.850704 380.994444 42.850704 380.994444 42.850704 
C 380.994444 42.850704 380.994444 42.850704 380.994444 42.850704 
C 380.994444 42.850704 380.994444 42.850704 380.994444 42.850704 
C 380.994444 42.850704 380.994444 42.850704 380.994444 42.850704 
z
" clip-path="url(#p442d6c9502)" style="fill: #1f78b4; stroke: #1f78b4"/>
    <path d="M 209.98987 47.171839 
C 209.98987 47.171839 209.98987 47.171839 209.98987 47.171839 
C 209.98987 47.171839 209.98987 47.171839 209.98987 47.171839 
C 209.98987 47.171839 209.98987 47.171839 209.98987 47.171839 
C 209.98987 47.171839 209.98987 47.171839 209.98987 47.171839 
C 209.98987 47.171839 209.98987 47.171839 209.98987 47.171839 
C 209.98987 47.171839 209.98987 47.171839 209.98987 47.171839 
C 209.98987 47.171839 209.98987 47.171839 209.98987 47.171839 
C 209.98987 47.171839 209.98987 47.171839 209.98987 47.171839 
z
" clip-path="url(#p442d6c9502)" style="fill: #1f78b4; stroke: #1f78b4"/>
   </g>
  </g>
 </g>
 <defs>
  <clipPath id="p442d6c9502">
   <rect x="0" y="0" width="460.8" height="345.6"/>
  </clipPath>
 </defs>
</svg>
