<?xml version="1.0" encoding="utf-8" standalone="no"?>
<!DOCTYPE svg PUBLIC "-//W3C//DTD SVG 1.1//EN"
  "http://www.w3.org/Graphics/SVG/1.1/DTD/svg11.dtd">
<svg xmlns:xlink="http://www.w3.org/1999/xlink" width="460.8pt" height="345.6pt" viewBox="0 0 460.8 345.6" xmlns="http://www.w3.org/2000/svg" version="1.1">
 <metadata>
  <rdf:RDF xmlns:dc="http://purl.org/dc/elements/1.1/" xmlns:cc="http://creativecommons.org/ns#" xmlns:rdf="http://www.w3.org/1999/02/22-rdf-syntax-ns#">
   <cc:Work>
    <dc:type rdf:resource="http://purl.org/dc/dcmitype/StillImage"/>
    <dc:date>2024-06-29T17:47:07.720612</dc:date>
    <dc:format>image/svg+xml</dc:format>
    <dc:creator>
     <cc:Agent>
      <dc:title>Matplotlib v3.8.3, https://matplotlib.org/</dc:title>
     </cc:Agent>
    </dc:creator>
   </cc:Work>
  </rdf:RDF>
 </metadata>
 <defs>
  <style type="text/css">*{stroke-linejoin: round; stroke-linecap: butt}</style>
 </defs>
 <g id="figure_1">
  <g id="patch_1">
   <path d="M 0 345.6 
L 460.8 345.6 
L 460.8 0 
L 0 0 
z
" style="fill: #ffffff"/>
  </g>
  <g id="axes_1">
   <g id="LineCollection_1">
    <path d="M 119.774213 274.764255 
L 73.306557 275.150539 
" clip-path="url(#p6b52d49c45)" style="fill: none; stroke: #000000"/>
    <path d="M 119.774213 274.764255 
L 274.544753 304.728485 
" clip-path="url(#p6b52d49c45)" style="fill: none; stroke: #000000"/>
    <path d="M 119.774213 274.764255 
L 244.645389 280.674796 
" clip-path="url(#p6b52d49c45)" style="fill: none; stroke: #000000"/>
    <path d="M 119.774213 274.764255 
L 187.062984 219.095006 
" clip-path="url(#p6b52d49c45)" style="fill: none; stroke: #000000"/>
    <path d="M 119.774213 274.764255 
L 104.89298 239.579125 
" clip-path="url(#p6b52d49c45)" style="fill: none; stroke: #000000"/>
    <path d="M 73.306557 275.150539 
L 274.544753 304.728485 
" clip-path="url(#p6b52d49c45)" style="fill: none; stroke: #000000"/>
    <path d="M 73.306557 275.150539 
L 104.89298 239.579125 
" clip-path="url(#p6b52d49c45)" style="fill: none; stroke: #000000"/>
    <path d="M 73.306557 275.150539 
L 39.986777 261.071525 
" clip-path="url(#p6b52d49c45)" style="fill: none; stroke: #000000"/>
    <path d="M 274.544753 304.728485 
L 244.645389 280.674796 
" clip-path="url(#p6b52d49c45)" style="fill: none; stroke: #000000"/>
    <path d="M 274.544753 304.728485 
L 251.664699 283.234871 
" clip-path="url(#p6b52d49c45)" style="fill: none; stroke: #000000"/>
    <path d="M 274.544753 304.728485 
L 383.573804 315.609917 
" clip-path="url(#p6b52d49c45)" style="fill: none; stroke: #000000"/>
    <path d="M 274.544753 304.728485 
L 336.703067 288.336509 
" clip-path="url(#p6b52d49c45)" style="fill: none; stroke: #000000"/>
    <path d="M 126.415228 189.255724 
L 187.062984 219.095006 
" clip-path="url(#p6b52d49c45)" style="fill: none; stroke: #000000"/>
    <path d="M 126.415228 189.255724 
L 199.099003 199.759762 
" clip-path="url(#p6b52d49c45)" style="fill: none; stroke: #000000"/>
    <path d="M 126.415228 189.255724 
L 86.978189 186.102027 
" clip-path="url(#p6b52d49c45)" style="fill: none; stroke: #000000"/>
    <path d="M 126.415228 189.255724 
L 103.878536 155.979993 
" clip-path="url(#p6b52d49c45)" style="fill: none; stroke: #000000"/>
    <path d="M 126.415228 189.255724 
L 104.89298 239.579125 
" clip-path="url(#p6b52d49c45)" style="fill: none; stroke: #000000"/>
    <path d="M 126.415228 189.255724 
L 133.362395 117.537333 
" clip-path="url(#p6b52d49c45)" style="fill: none; stroke: #000000"/>
    <path d="M 187.062984 219.095006 
L 199.099003 199.759762 
" clip-path="url(#p6b52d49c45)" style="fill: none; stroke: #000000"/>
    <path d="M 187.062984 219.095006 
L 244.645389 280.674796 
" clip-path="url(#p6b52d49c45)" style="fill: none; stroke: #000000"/>
    <path d="M 187.062984 219.095006 
L 104.89298 239.579125 
" clip-path="url(#p6b52d49c45)" style="fill: none; stroke: #000000"/>
    <path d="M 187.062984 219.095006 
L 307.655486 221.559185 
" clip-path="url(#p6b52d49c45)" style="fill: none; stroke: #000000"/>
    <path d="M 199.099003 199.759762 
L 359.27841 157.857338 
" clip-path="url(#p6b52d49c45)" style="fill: none; stroke: #000000"/>
    <path d="M 199.099003 199.759762 
L 340.562923 96.90962 
" clip-path="url(#p6b52d49c45)" style="fill: none; stroke: #000000"/>
    <path d="M 199.099003 199.759762 
L 307.655486 221.559185 
" clip-path="url(#p6b52d49c45)" style="fill: none; stroke: #000000"/>
    <path d="M 199.099003 199.759762 
L 266.511597 53.0857 
" clip-path="url(#p6b52d49c45)" style="fill: none; stroke: #000000"/>
    <path d="M 199.099003 199.759762 
L 133.362395 117.537333 
" clip-path="url(#p6b52d49c45)" style="fill: none; stroke: #000000"/>
    <path d="M 359.27841 157.857338 
L 340.562923 96.90962 
" clip-path="url(#p6b52d49c45)" style="fill: none; stroke: #000000"/>
    <path d="M 359.27841 157.857338 
L 307.655486 221.559185 
" clip-path="url(#p6b52d49c45)" style="fill: none; stroke: #000000"/>
    <path d="M 359.27841 157.857338 
L 361.277883 186.752601 
" clip-path="url(#p6b52d49c45)" style="fill: none; stroke: #000000"/>
    <path d="M 359.27841 157.857338 
L 417.540838 140.446427 
" clip-path="url(#p6b52d49c45)" style="fill: none; stroke: #000000"/>
    <path d="M 359.27841 157.857338 
L 413.590158 130.334345 
" clip-path="url(#p6b52d49c45)" style="fill: none; stroke: #000000"/>
    <path d="M 340.562923 96.90962 
L 373.380341 72.242815 
" clip-path="url(#p6b52d49c45)" style="fill: none; stroke: #000000"/>
    <path d="M 340.562923 96.90962 
L 344.814658 80.482431 
" clip-path="url(#p6b52d49c45)" style="fill: none; stroke: #000000"/>
    <path d="M 340.562923 96.90962 
L 413.590158 130.334345 
" clip-path="url(#p6b52d49c45)" style="fill: none; stroke: #000000"/>
    <path d="M 340.562923 96.90962 
L 266.511597 53.0857 
" clip-path="url(#p6b52d49c45)" style="fill: none; stroke: #000000"/>
    <path d="M 373.380341 72.242815 
L 344.814658 80.482431 
" clip-path="url(#p6b52d49c45)" style="fill: none; stroke: #000000"/>
    <path d="M 373.380341 72.242815 
L 413.590158 130.334345 
" clip-path="url(#p6b52d49c45)" style="fill: none; stroke: #000000"/>
    <path d="M 373.380341 72.242815 
L 397.134519 29.990083 
" clip-path="url(#p6b52d49c45)" style="fill: none; stroke: #000000"/>
    <path d="M 373.380341 72.242815 
L 282.068881 42.098654 
" clip-path="url(#p6b52d49c45)" style="fill: none; stroke: #000000"/>
    <path d="M 344.814658 80.482431 
L 282.068881 42.098654 
" clip-path="url(#p6b52d49c45)" style="fill: none; stroke: #000000"/>
    <path d="M 344.814658 80.482431 
L 266.511597 53.0857 
" clip-path="url(#p6b52d49c45)" style="fill: none; stroke: #000000"/>
    <path d="M 86.978189 186.102027 
L 103.878536 155.979993 
" clip-path="url(#p6b52d49c45)" style="fill: none; stroke: #000000"/>
    <path d="M 86.978189 186.102027 
L 74.372169 88.048926 
" clip-path="url(#p6b52d49c45)" style="fill: none; stroke: #000000"/>
    <path d="M 86.978189 186.102027 
L 39.986777 261.071525 
" clip-path="url(#p6b52d49c45)" style="fill: none; stroke: #000000"/>
    <path d="M 86.978189 186.102027 
L 104.89298 239.579125 
" clip-path="url(#p6b52d49c45)" style="fill: none; stroke: #000000"/>
    <path d="M 103.878536 155.979993 
L 74.372169 88.048926 
" clip-path="url(#p6b52d49c45)" style="fill: none; stroke: #000000"/>
    <path d="M 103.878536 155.979993 
L 133.362395 117.537333 
" clip-path="url(#p6b52d49c45)" style="fill: none; stroke: #000000"/>
    <path d="M 74.372169 88.048926 
L 39.986777 261.071525 
" clip-path="url(#p6b52d49c45)" style="fill: none; stroke: #000000"/>
    <path d="M 74.372169 88.048926 
L 101.218773 69.64635 
" clip-path="url(#p6b52d49c45)" style="fill: none; stroke: #000000"/>
    <path d="M 74.372169 88.048926 
L 109.899808 39.683147 
" clip-path="url(#p6b52d49c45)" style="fill: none; stroke: #000000"/>
    <path d="M 74.372169 88.048926 
L 133.362395 117.537333 
" clip-path="url(#p6b52d49c45)" style="fill: none; stroke: #000000"/>
    <path d="M 39.986777 261.071525 
L 104.89298 239.579125 
" clip-path="url(#p6b52d49c45)" style="fill: none; stroke: #000000"/>
    <path d="M 244.645389 280.674796 
L 251.664699 283.234871 
" clip-path="url(#p6b52d49c45)" style="fill: none; stroke: #000000"/>
    <path d="M 244.645389 280.674796 
L 307.655486 221.559185 
" clip-path="url(#p6b52d49c45)" style="fill: none; stroke: #000000"/>
    <path d="M 251.664699 283.234871 
L 307.655486 221.559185 
" clip-path="url(#p6b52d49c45)" style="fill: none; stroke: #000000"/>
    <path d="M 251.664699 283.234871 
L 336.703067 288.336509 
" clip-path="url(#p6b52d49c45)" style="fill: none; stroke: #000000"/>
    <path d="M 251.664699 283.234871 
L 328.838891 239.904929 
" clip-path="url(#p6b52d49c45)" style="fill: none; stroke: #000000"/>
    <path d="M 396.945132 300.877626 
L 383.573804 315.609917 
" clip-path="url(#p6b52d49c45)" style="fill: none; stroke: #000000"/>
    <path d="M 396.945132 300.877626 
L 420.813223 301.35299 
" clip-path="url(#p6b52d49c45)" style="fill: none; stroke: #000000"/>
    <path d="M 396.945132 300.877626 
L 366.997137 242.836145 
" clip-path="url(#p6b52d49c45)" style="fill: none; stroke: #000000"/>
    <path d="M 396.945132 300.877626 
L 336.703067 288.336509 
" clip-path="url(#p6b52d49c45)" style="fill: none; stroke: #000000"/>
    <path d="M 383.573804 315.609917 
L 420.813223 301.35299 
" clip-path="url(#p6b52d49c45)" style="fill: none; stroke: #000000"/>
    <path d="M 383.573804 315.609917 
L 336.703067 288.336509 
" clip-path="url(#p6b52d49c45)" style="fill: none; stroke: #000000"/>
    <path d="M 420.813223 301.35299 
L 366.997137 242.836145 
" clip-path="url(#p6b52d49c45)" style="fill: none; stroke: #000000"/>
    <path d="M 420.813223 301.35299 
L 417.540838 140.446427 
" clip-path="url(#p6b52d49c45)" style="fill: none; stroke: #000000"/>
    <path d="M 307.655486 221.559185 
L 361.277883 186.752601 
" clip-path="url(#p6b52d49c45)" style="fill: none; stroke: #000000"/>
    <path d="M 307.655486 221.559185 
L 328.838891 239.904929 
" clip-path="url(#p6b52d49c45)" style="fill: none; stroke: #000000"/>
    <path d="M 361.277883 186.752601 
L 417.540838 140.446427 
" clip-path="url(#p6b52d49c45)" style="fill: none; stroke: #000000"/>
    <path d="M 361.277883 186.752601 
L 366.997137 242.836145 
" clip-path="url(#p6b52d49c45)" style="fill: none; stroke: #000000"/>
    <path d="M 361.277883 186.752601 
L 328.838891 239.904929 
" clip-path="url(#p6b52d49c45)" style="fill: none; stroke: #000000"/>
    <path d="M 417.540838 140.446427 
L 413.590158 130.334345 
" clip-path="url(#p6b52d49c45)" style="fill: none; stroke: #000000"/>
    <path d="M 417.540838 140.446427 
L 397.134519 29.990083 
" clip-path="url(#p6b52d49c45)" style="fill: none; stroke: #000000"/>
    <path d="M 417.540838 140.446427 
L 366.997137 242.836145 
" clip-path="url(#p6b52d49c45)" style="fill: none; stroke: #000000"/>
    <path d="M 413.590158 130.334345 
L 397.134519 29.990083 
" clip-path="url(#p6b52d49c45)" style="fill: none; stroke: #000000"/>
    <path d="M 397.134519 29.990083 
L 282.068881 42.098654 
" clip-path="url(#p6b52d49c45)" style="fill: none; stroke: #000000"/>
    <path d="M 397.134519 29.990083 
L 161.694761 36.662957 
" clip-path="url(#p6b52d49c45)" style="fill: none; stroke: #000000"/>
    <path d="M 282.068881 42.098654 
L 266.511597 53.0857 
" clip-path="url(#p6b52d49c45)" style="fill: none; stroke: #000000"/>
    <path d="M 282.068881 42.098654 
L 161.694761 36.662957 
" clip-path="url(#p6b52d49c45)" style="fill: none; stroke: #000000"/>
    <path d="M 366.997137 242.836145 
L 336.703067 288.336509 
" clip-path="url(#p6b52d49c45)" style="fill: none; stroke: #000000"/>
    <path d="M 366.997137 242.836145 
L 340.049832 247.354181 
" clip-path="url(#p6b52d49c45)" style="fill: none; stroke: #000000"/>
    <path d="M 366.997137 242.836145 
L 328.838891 239.904929 
" clip-path="url(#p6b52d49c45)" style="fill: none; stroke: #000000"/>
    <path d="M 336.703067 288.336509 
L 340.049832 247.354181 
" clip-path="url(#p6b52d49c45)" style="fill: none; stroke: #000000"/>
    <path d="M 336.703067 288.336509 
L 328.838891 239.904929 
" clip-path="url(#p6b52d49c45)" style="fill: none; stroke: #000000"/>
    <path d="M 340.049832 247.354181 
L 328.838891 239.904929 
" clip-path="url(#p6b52d49c45)" style="fill: none; stroke: #000000"/>
    <path d="M 101.218773 69.64635 
L 109.899808 39.683147 
" clip-path="url(#p6b52d49c45)" style="fill: none; stroke: #000000"/>
    <path d="M 101.218773 69.64635 
L 133.362395 117.537333 
" clip-path="url(#p6b52d49c45)" style="fill: none; stroke: #000000"/>
    <path d="M 101.218773 69.64635 
L 161.694761 36.662957 
" clip-path="url(#p6b52d49c45)" style="fill: none; stroke: #000000"/>
    <path d="M 109.899808 39.683147 
L 161.694761 36.662957 
" clip-path="url(#p6b52d49c45)" style="fill: none; stroke: #000000"/>
    <path d="M 266.511597 53.0857 
L 133.362395 117.537333 
" clip-path="url(#p6b52d49c45)" style="fill: none; stroke: #000000"/>
    <path d="M 266.511597 53.0857 
L 161.694761 36.662957 
" clip-path="url(#p6b52d49c45)" style="fill: none; stroke: #000000"/>
    <path d="M 133.362395 117.537333 
L 161.694761 36.662957 
" clip-path="url(#p6b52d49c45)" style="fill: none; stroke: #000000"/>
   </g>
   <g id="PathCollection_1">
    <defs>
     <path id="m7cd09231cd" d="M 0 3.535534 
C 0.937635 3.535534 1.836992 3.163008 2.5 2.5 
C 3.163008 1.836992 3.535534 0.937635 3.535534 0 
C 3.535534 -0.937635 3.163008 -1.836992 2.5 -2.5 
C 1.836992 -3.163008 0.937635 -3.535534 0 -3.535534 
C -0.937635 -3.535534 -1.836992 -3.163008 -2.5 -2.5 
C -3.163008 -1.836992 -3.535534 -0.937635 -3.535534 0 
C -3.535534 0.937635 -3.163008 1.836992 -2.5 2.5 
C -1.836992 3.163008 -0.937635 3.535534 0 3.535534 
z
" style="stroke: #1f78b4"/>
    </defs>
    <g clip-path="url(#p6b52d49c45)">
     <use xlink:href="#m7cd09231cd" x="119.774213" y="274.764255" style="fill: #1f78b4; stroke: #1f78b4"/>
     <use xlink:href="#m7cd09231cd" x="73.306557" y="275.150539" style="fill: #1f78b4; stroke: #1f78b4"/>
     <use xlink:href="#m7cd09231cd" x="274.544753" y="304.728485" style="fill: #1f78b4; stroke: #1f78b4"/>
     <use xlink:href="#m7cd09231cd" x="126.415228" y="189.255724" style="fill: #1f78b4; stroke: #1f78b4"/>
     <use xlink:href="#m7cd09231cd" x="187.062984" y="219.095006" style="fill: #1f78b4; stroke: #1f78b4"/>
     <use xlink:href="#m7cd09231cd" x="199.099003" y="199.759762" style="fill: #1f78b4; stroke: #1f78b4"/>
     <use xlink:href="#m7cd09231cd" x="359.27841" y="157.857338" style="fill: #1f78b4; stroke: #1f78b4"/>
     <use xlink:href="#m7cd09231cd" x="340.562923" y="96.90962" style="fill: #1f78b4; stroke: #1f78b4"/>
     <use xlink:href="#m7cd09231cd" x="373.380341" y="72.242815" style="fill: #1f78b4; stroke: #1f78b4"/>
     <use xlink:href="#m7cd09231cd" x="344.814658" y="80.482431" style="fill: #1f78b4; stroke: #1f78b4"/>
     <use xlink:href="#m7cd09231cd" x="86.978189" y="186.102027" style="fill: #1f78b4; stroke: #1f78b4"/>
     <use xlink:href="#m7cd09231cd" x="103.878536" y="155.979993" style="fill: #1f78b4; stroke: #1f78b4"/>
     <use xlink:href="#m7cd09231cd" x="74.372169" y="88.048926" style="fill: #1f78b4; stroke: #1f78b4"/>
     <use xlink:href="#m7cd09231cd" x="39.986777" y="261.071525" style="fill: #1f78b4; stroke: #1f78b4"/>
     <use xlink:href="#m7cd09231cd" x="244.645389" y="280.674796" style="fill: #1f78b4; stroke: #1f78b4"/>
     <use xlink:href="#m7cd09231cd" x="251.664699" y="283.234871" style="fill: #1f78b4; stroke: #1f78b4"/>
     <use xlink:href="#m7cd09231cd" x="104.89298" y="239.579125" style="fill: #1f78b4; stroke: #1f78b4"/>
     <use xlink:href="#m7cd09231cd" x="396.945132" y="300.877626" style="fill: #1f78b4; stroke: #1f78b4"/>
     <use xlink:href="#m7cd09231cd" x="383.573804" y="315.609917" style="fill: #1f78b4; stroke: #1f78b4"/>
     <use xlink:href="#m7cd09231cd" x="420.813223" y="301.35299" style="fill: #1f78b4; stroke: #1f78b4"/>
     <use xlink:href="#m7cd09231cd" x="307.655486" y="221.559185" style="fill: #1f78b4; stroke: #1f78b4"/>
     <use xlink:href="#m7cd09231cd" x="361.277883" y="186.752601" style="fill: #1f78b4; stroke: #1f78b4"/>
     <use xlink:href="#m7cd09231cd" x="417.540838" y="140.446427" style="fill: #1f78b4; stroke: #1f78b4"/>
     <use xlink:href="#m7cd09231cd" x="413.590158" y="130.334345" style="fill: #1f78b4; stroke: #1f78b4"/>
     <use xlink:href="#m7cd09231cd" x="397.134519" y="29.990083" style="fill: #1f78b4; stroke: #1f78b4"/>
     <use xlink:href="#m7cd09231cd" x="282.068881" y="42.098654" style="fill: #1f78b4; stroke: #1f78b4"/>
     <use xlink:href="#m7cd09231cd" x="366.997137" y="242.836145" style="fill: #1f78b4; stroke: #1f78b4"/>
     <use xlink:href="#m7cd09231cd" x="336.703067" y="288.336509" style="fill: #1f78b4; stroke: #1f78b4"/>
     <use xlink:href="#m7cd09231cd" x="340.049832" y="247.354181" style="fill: #1f78b4; stroke: #1f78b4"/>
     <use xlink:href="#m7cd09231cd" x="101.218773" y="69.64635" style="fill: #1f78b4; stroke: #1f78b4"/>
     <use xlink:href="#m7cd09231cd" x="109.899808" y="39.683147" style="fill: #1f78b4; stroke: #1f78b4"/>
     <use xlink:href="#m7cd09231cd" x="266.511597" y="53.0857" style="fill: #1f78b4; stroke: #1f78b4"/>
     <use xlink:href="#m7cd09231cd" x="328.838891" y="239.904929" style="fill: #1f78b4; stroke: #1f78b4"/>
     <use xlink:href="#m7cd09231cd" x="133.362395" y="117.537333" style="fill: #1f78b4; stroke: #1f78b4"/>
     <use xlink:href="#m7cd09231cd" x="161.694761" y="36.662957" style="fill: #1f78b4; stroke: #1f78b4"/>
    </g>
   </g>
  </g>
 </g>
 <defs>
  <clipPath id="p6b52d49c45">
   <rect x="0" y="0" width="460.8" height="345.6"/>
  </clipPath>
 </defs>
</svg>
